<svg width="24" height="24" viewBox="0 0 24 24" fill="none" xmlns="http://www.w3.org/2000/svg">
<path d="M8.25 9.75006H13.125C13.8212 9.75006 14.4889 10.0266 14.9812 10.5189C15.4734 11.0112 15.75 11.6789 15.75 12.3751C15.75 13.0713 15.4734 13.7389 14.9812 14.2312C14.4889 14.7235 13.8212 15.0001 13.125 15.0001H12M8.25 9.75006L10.5 7.50006M8.25 9.75006L10.5 12.0001M19.5 4.75706V21.7501L15.75 20.2501L12 21.7501L8.25 20.2501L4.5 21.7501V4.75706C4.5 3.64906 5.306 2.70006 6.407 2.57206C10.1232 2.14069 13.8768 2.14069 17.593 2.57206C18.693 2.70006 19.5 3.64906 19.5 4.75706Z" stroke="black" stroke-width="1.5" stroke-linecap="round" stroke-linejoin="round"/>
</svg>
