<svg width="29" height="22" viewBox="0 0 29 22" fill="none" xmlns="http://www.w3.org/2000/svg">
<path fill-rule="evenodd" clip-rule="evenodd" d="M14.4028 0C15.5678 0 16.7627 0.0299751 17.9208 0.0790251L19.2888 0.144425L20.5981 0.222088L21.8244 0.3052L22.9443 0.3924C24.1598 0.485428 25.3034 1.00409 26.1742 1.85714C27.0449 2.71019 27.587 3.84299 27.7049 5.05624L27.7594 5.6353L27.8616 6.87517C27.957 8.16001 28.0278 9.56066 28.0278 10.9C28.0278 12.2393 27.957 13.64 27.8616 14.9248L27.7594 16.1647C27.7417 16.3636 27.724 16.5557 27.7049 16.7438C27.5869 17.9572 27.0447 19.0902 26.1737 19.9433C25.3026 20.7964 24.1586 21.3149 22.943 21.4076L21.8257 21.4934L20.5995 21.5779L19.2888 21.6556L17.9208 21.721C16.7488 21.7719 15.5759 21.7983 14.4028 21.8C13.2297 21.7983 12.0568 21.7719 10.8849 21.721L9.51691 21.6556L8.20754 21.5779L6.98129 21.4934L5.86132 21.4076C4.6459 21.3146 3.50222 20.7959 2.63148 19.9429C1.76073 19.0898 1.2187 17.957 1.10074 16.7438L1.04624 16.1647L0.944057 14.9248C0.839877 13.5857 0.784432 12.2432 0.777832 10.9C0.777832 9.56066 0.848682 8.16001 0.944057 6.87517L1.04624 5.6353C1.06396 5.43637 1.08167 5.24426 1.10074 5.05624C1.21866 3.8432 1.76049 2.71058 2.63096 1.85756C3.50142 1.00453 4.64478 0.485735 5.85996 0.3924L6.97857 0.3052L8.20482 0.222088L9.51554 0.144425L10.8835 0.0790251C12.0559 0.0281124 13.2293 0.00176483 14.4028 0ZM11.6778 7.59594V14.2041C11.6778 14.8335 12.3591 15.2259 12.9041 14.9126L18.6266 11.6085C18.7511 11.5368 18.8545 11.4336 18.9265 11.3092C18.9984 11.1848 19.0362 11.0437 19.0362 10.9C19.0362 10.7563 18.9984 10.6152 18.9265 10.4908C18.8545 10.3664 18.7511 10.2632 18.6266 10.1915L12.9041 6.8888C12.7798 6.81703 12.6387 6.77925 12.4952 6.77928C12.3517 6.7793 12.2106 6.81712 12.0864 6.88893C11.9621 6.96074 11.8589 7.06402 11.7872 7.18837C11.7154 7.31272 11.6777 7.45375 11.6778 7.5973V7.59594Z" fill="black"/>
</svg>
